<svg width="103" height="21" viewBox="0 0 103 21" fill="none" xmlns="http://www.w3.org/2000/svg">
<g clip-path="url(#clip0_7_8)">
<path d="M3.942 7.226H0.072V4.4H11.358V7.226H7.506V17H3.942V7.226ZM18.864 17.252C17.532 17.252 16.332 16.97 15.264 16.406C14.208 15.842 13.374 15.062 12.762 14.066C12.162 13.07 11.862 11.948 11.862 10.7C11.862 9.452 12.162 8.33 12.762 7.334C13.374 6.338 14.208 5.558 15.264 4.994C16.332 4.43 17.532 4.148 18.864 4.148C20.196 4.148 21.39 4.43 22.446 4.994C23.514 5.558 24.348 6.338 24.948 7.334C25.56 8.33 25.866 9.452 25.866 10.7C25.866 11.948 25.56 13.07 24.948 14.066C24.348 15.062 23.514 15.842 22.446 16.406C21.39 16.97 20.196 17.252 18.864 17.252ZM18.864 14.3C19.5 14.3 20.076 14.15 20.592 13.85C21.108 13.55 21.516 13.13 21.816 12.59C22.116 12.038 22.266 11.408 22.266 10.7C22.266 9.992 22.116 9.368 21.816 8.828C21.516 8.276 21.108 7.85 20.592 7.55C20.076 7.25 19.5 7.1 18.864 7.1C18.228 7.1 17.652 7.25 17.136 7.55C16.62 7.85 16.212 8.276 15.912 8.828C15.612 9.368 15.462 9.992 15.462 10.7C15.462 11.408 15.612 12.038 15.912 12.59C16.212 13.13 16.62 13.55 17.136 13.85C17.652 14.15 18.228 14.3 18.864 14.3ZM33.4927 4.4C34.6327 4.4 35.6227 4.592 36.4627 4.976C37.3027 5.348 37.9507 5.888 38.4067 6.596C38.8627 7.292 39.0907 8.114 39.0907 9.062C39.0907 10.01 38.8627 10.832 38.4067 11.528C37.9507 12.224 37.3027 12.764 36.4627 13.148C35.6227 13.52 34.6327 13.706 33.4927 13.706H31.2967V17H27.7327V4.4H33.4927ZM33.2767 10.898C34.0087 10.898 34.5607 10.742 34.9327 10.43C35.3047 10.106 35.4907 9.65 35.4907 9.062C35.4907 8.474 35.3047 8.018 34.9327 7.694C34.5607 7.37 34.0087 7.208 33.2767 7.208H31.2967V10.898H33.2767Z" fill="white"/>
<path d="M52.3801 17L52.3441 10.322L49.1041 15.758H47.5201L44.2981 10.502V17H41.0041V4.4H43.9381L48.3661 11.672L52.6861 4.4H55.6201L55.6561 17H52.3801ZM64.532 17.252C63.2 17.252 62 16.97 60.932 16.406C59.876 15.842 59.042 15.062 58.43 14.066C57.83 13.07 57.53 11.948 57.53 10.7C57.53 9.452 57.83 8.33 58.43 7.334C59.042 6.338 59.876 5.558 60.932 4.994C62 4.43 63.2 4.148 64.532 4.148C65.864 4.148 67.058 4.43 68.114 4.994C69.182 5.558 70.016 6.338 70.616 7.334C71.228 8.33 71.534 9.452 71.534 10.7C71.534 11.948 71.228 13.07 70.616 14.066C70.016 15.062 69.182 15.842 68.114 16.406C67.058 16.97 65.864 17.252 64.532 17.252ZM64.532 14.3C65.168 14.3 65.744 14.15 66.26 13.85C66.776 13.55 67.184 13.13 67.484 12.59C67.784 12.038 67.934 11.408 67.934 10.7C67.934 9.992 67.784 9.368 67.484 8.828C67.184 8.276 66.776 7.85 66.26 7.55C65.744 7.25 65.168 7.1 64.532 7.1C63.896 7.1 63.32 7.25 62.804 7.55C62.288 7.85 61.88 8.276 61.58 8.828C61.28 9.368 61.13 9.992 61.13 10.7C61.13 11.408 61.28 12.038 61.58 12.59C61.88 13.13 62.288 13.55 62.804 13.85C63.32 14.15 63.896 14.3 64.532 14.3ZM85.7412 4.4L80.3412 17H76.8312L71.4492 4.4H75.3012L78.7212 12.608L82.2132 4.4H85.7412ZM86.4788 4.4H90.0428V17H86.4788V4.4ZM102.694 14.246V17H92.5784V4.4H102.46V7.154H96.1064V9.278H101.704V11.942H96.1064V14.246H102.694Z" fill="#FF0000"/>
</g>
<defs>
<clipPath id="clip0_7_8">
<rect width="103" height="21" fill="white"/>
</clipPath>
</defs>
</svg>
